Coordinates
version=1
nRows=6
nColumns=63
inDegrees=yes

Units are S.I. units (second, meters, Newtons, ...)
If the header above contains a line with 'inDegrees', this indicates whether rotational values are in degrees (yes) or radians (no).

endheader
time	pelvis_tilt	pelvis_list	pelvis_rotation	pelvis_tx	pelvis_ty	pelvis_tz	hip_flexion_r	hip_adduction_r	hip_rotation_r	knee_angle_r	knee_angle_r_beta	ankle_angle_r	subtalar_angle_r	mtp_angle_r	hip_flexion_l	hip_adduction_l	hip_rotation_l	knee_angle_l	knee_angle_l_beta	ankle_angle_l	subtalar_angle_l	mtp_angle_l	L5_S1_Flex_Ext	L5_S1_Lat_Bending	L5_S1_axial_rotation	L4_L5_Flex_Ext	L4_L5_Lat_Bending	L4_L5_axial_rotation	L3_L4_Flex_Ext	L3_L4_Lat_Bending	L3_L4_axial_rotation	L2_L3_Flex_Ext	L2_L3_Lat_Bending	L2_L3_axial_rotation	L1_L2_Flex_Ext	L1_L2_Lat_Bending	L1_L2_axial_rotation	L1_T12_Flex_Ext	L1_T12_Lat_Bending	L1_T12_axial_rotation	Abs_r3	Abs_r2	Abs_r1	Abs_t1	Abs_t2	neck_flexion	neck_bending	neck_rotation	arm_flex_r	arm_add_r	arm_rot_r	elbow_flex_r	pro_sup_r	wrist_flex_r	wrist_dev_r	arm_flex_l	arm_add_l	arm_rot_l	elbow_flex_l	pro_sup_l	wrist_flex_l	wrist_dev_l
      0.00000000	      2.26202164	     -4.14804175	     91.22494841	      0.24575897	      1.00395927	      0.27420630	      2.07910922	     -1.42248126	    -16.53203939	     16.96772109	      0.29614260	     37.32701399	     18.88364360	      0.00000000	     -5.05796987	     -0.16915318	     12.48113442	      1.80524528	      0.03150747	     24.96015518	    -16.90982451	      0.00000000	      0.16032514	      0.08042224	      1.85953542	      0.29773982	      0.10696158	      1.97575638	      0.26339817	      0.19553863	      1.97575638	      0.18323560	      0.19553863	      1.62709349	      0.14887793	      0.16399703	      1.51087253	      0.09160979	      0.12457405	      1.39465157	      1.14518645	      0.90975246	     10.34217815	      0.00000000	      0.00000000	     21.76629220	     -9.02939961	    -19.35628317	      3.24260573	    -17.56822161	     48.65716231	     62.67322747	     88.94716631	      1.12113722	      8.06863451	     19.95215308	    -12.67847899	     75.65786511	     61.40252808	     59.33613472	    -11.23676701	      5.75566441
      0.01666667	      2.03653101	     -3.96145782	     91.39027013	      0.24498636	      1.00445557	      0.27395213	      1.84909182	     -1.72718859	    -16.76100063	     16.96997852	      0.29618200	     37.29487156	     18.90724649	      0.00000000	     -5.42116051	      0.12344791	     12.36290844	      1.25658512	      0.02193155	     24.72643718	    -17.11720342	      0.00000000	      0.13899904	      0.03736433	      1.81750155	      0.25813511	      0.04969456	      1.93109540	      0.22836152	      0.09084763	      1.93109540	      0.15886200	      0.09084763	      1.59031386	      0.12907451	      0.07619334	      1.47672001	      0.07942405	      0.05787735	      1.36312617	      0.99285623	      0.42267278	     10.10839839	      0.00000000	      0.00000000	     21.54079110	     -8.37730897	    -20.17705354	      4.04898104	    -17.69992882	     50.31523359	     61.96829944	     89.12795683	     -2.22780680	      5.59446250	     20.24400640	    -12.70187536	     75.95733544	     61.42355345	     56.19490713	    -10.65356201	      6.99829728
      0.03333333	      1.78359474	     -3.90181746	     91.34175312	      0.24477642	      1.00476789	      0.27384691	      1.83321334	     -2.04215695	    -16.70544338	     17.05614132	      0.29768582	     37.37770946	     18.91540345	      0.00000000	     -5.55066035	      0.45606397	     12.00155142	      0.95477599	      0.01666398	     24.62705416	    -17.21610556	      0.00000000	      0.12846345	     -0.00724641	      1.81336619	      0.23856948	     -0.00963772	      1.92670157	      0.21105261	     -0.01761891	      1.92670157	      0.14682088	     -0.01761891	      1.58669541	      0.11929116	     -0.01477687	      1.47336003	      0.07340402	     -0.01122468	      1.36002464	      0.91760161	     -0.08197280	     10.08539872	      0.00000000	      0.00000000	     21.47906773	     -7.87775039	    -20.94017380	      4.57838271	    -17.57376012	     51.37786258	     61.29658015	     89.19177220	     -3.94519788	      4.11867590	     20.40321410	    -12.84252513	     76.37967517	     61.46444588	     54.39784763	    -10.96905428	      7.03434911
      0.05000000	      1.52271571	     -3.91593268	     91.41687228	      0.24455483	      1.00493001	      0.27393915	      1.90241683	     -2.35756818	    -16.79701152	     17.15020866	      0.29932761	     37.48266501	     18.93102923	      0.00000000	     -5.53057331	      0.77680780	     11.85274356	      0.78333369	      0.01367175	     24.54477722	    -17.31069692	      0.00000000	      0.12051547	     -0.05166938	      1.79965638	      0.22380928	     -0.06872028	      1.91213490	      0.19799487	     -0.12562894	      1.91213490	      0.13773713	     -0.12562894	      1.57469933	      0.11191067	     -0.10536421	      1.46222080	      0.06886254	     -0.08003588	      1.34974228	      0.86082995	     -0.58449442	     10.00914886	      0.00000000	      0.00000000	     21.53887823	     -7.55704129	    -21.68962797	      4.83026004	    -17.27675385	     51.84522307	     60.76549659	     89.20890932	     -4.54635396	      3.61443634	     20.49046871	    -13.09499720	     76.70493926	     61.59449169	     53.44376862	    -11.05007396	      6.91388759
      0.06666667	      1.30239103	     -3.98413757	     91.30304271	      0.24448416	      1.00496738	      0.27412908	      2.10835651	     -2.64927322	    -16.70245169	     17.35606520	      0.30292048	     37.59701407	     18.95327348	      0.00000000	     -5.44730917	      1.07103199	     11.66280518	      0.67455090	      0.01177313	     24.46388055	    -17.48337835	      0.00000000	      0.11877755	     -0.07954049	      1.79391360	      0.22058179	     -0.10578886	      1.90603320	      0.19513964	     -0.19339476	      1.90603320	      0.13575086	     -0.19339476	      1.56967440	      0.11029683	     -0.16219898	      1.45755480	      0.06786949	     -0.12320823	      1.34543520	      0.84841617	     -0.89977798	      9.97720928	      0.00000000	      0.00000000	     21.73483400	     -7.39919213	    -21.74581530	      5.05721174	    -17.00131559	     52.16603394	     60.44295547	     89.19423186	     -3.85132313	      4.24219266	     20.23965225	    -13.41101335	     76.58274402	     61.74156511	     53.06820445	    -11.03696282	      6.36112007
      0.08333333	      1.11420286	     -4.11486826	     91.15485237	      0.24452576	      1.00488109	      0.27438464	      2.39036537	     -2.89739502	    -16.57702937	     17.55959990	      0.30647283	     37.70794702	     18.96902835	      0.00000000	     -5.28883622	      1.32139966	     11.45892106	      0.60933082	      0.01063483	     24.34507333	    -17.64815366	      0.00000000	      0.12422391	     -0.10423318	      1.79571130	      0.23069622	     -0.13863013	      1.90794326	      0.20408745	     -0.25343256	      1.90794326	      0.14197550	     -0.25343256	      1.57124739	      0.11535432	     -0.21255230	      1.45901543	      0.07098154	     -0.16145720	      1.34678348	      0.88731894	     -1.17910659	      9.98720754	      0.00000000	      0.00000000	     21.93333319	     -7.36607109	    -21.95701416	      5.14329468	    -16.66633126	     52.22571730	     60.20119012	     89.15737709	     -2.56336290	      5.20684632	     19.84250144	    -13.84442169	     76.33429766	     61.98418354	     53.25638201	    -10.97895992	      5.77180806
